<svg id="Layer_1" data-name="Layer 1" xmlns="http://www.w3.org/2000/svg" viewBox="0 0 800 800"><defs><style>.cls-1{fill:#342e37;}.cls-2{fill:#fff;}.cls-3{fill:#e26d5c;}.cls-4{fill:#f0bf5f;}.cls-5{fill:#dfcec2;}.cls-6{fill:#f05e4f;}.cls-7{fill:#999;opacity:0.3;}.cls-8{fill:#67554c;}</style></defs><circle class="cls-1" cx="400" cy="400" r="371.68"/><rect class="cls-2" x="212.22" y="200.88" width="333.21" height="402.45" rx="17.57"/><path class="cls-3" d="M236.74,271.35s-.41-6.33,5.54-5.33l27.51,27.2,57.26-56.33s6.65-1.39,5.1,5.1l-60.5,61.36a4.45,4.45,0,0,1-3.33,0Z"/><path class="cls-3" d="M236.74,358.93s-.41-6.33,5.54-5.33l27.51,27.2,57.26-56.33s6.65-1.39,5.1,5.1l-60.5,61.36a4.45,4.45,0,0,1-3.33,0Z"/><path class="cls-3" d="M236.74,445.48s-.41-6.33,5.54-5.33l27.51,27.2L327.05,411s6.65-1.39,5.1,5.1l-60.5,61.35a4.39,4.39,0,0,1-3.33,0Z"/><rect class="cls-3" x="343.28" y="270.21" width="168" height="8.15" rx="3.31"/><rect class="cls-3" x="343.18" y="358.82" width="168" height="8.15" rx="3.31"/><rect class="cls-3" x="343.18" y="447.28" width="168" height="8.15" rx="3.31"/><path class="cls-4" d="M486.57,436.8h44.37a3.63,3.63,0,0,1,3.63,3.63V629.35a3.63,3.63,0,0,1-3.63,3.63H484.3a1.35,1.35,0,0,1-1.35-1.35V440.43a3.63,3.63,0,0,1,3.63-3.63Z" transform="translate(527.23 -203.08) rotate(45)"/><polygon class="cls-5" points="421.49 585.76 409.94 630.79 413.29 634.86 455.98 623.13 457.96 621.26 421.49 585.76"/><rect class="cls-6" x="534.12" y="457.95" width="52.39" height="49.66" rx="3.66" transform="translate(505.49 -254.8) rotate(45)"/><path class="cls-7" d="M593.72,486.4,459.34,620.78a1.49,1.49,0,0,1-1.48.38l.1.1-2,1.87-42.69,11.73-1.78-2.16,28-29.38,6.43,6.27-6.49-6.49L577.59,465l16.13,16.13A3.72,3.72,0,0,1,593.72,486.4Z"/><path class="cls-8" d="M401.52,639.24l2.26,2.68h2l10-10.15s.26-.31,0-1.5l-2.17-2.11a1.41,1.41,0,0,0-1.95.47c-.67,1.18-.26.15-.26.15l-9.33,9.38S401.88,638.11,401.52,639.24Z"/></svg>