<svg id="svg2" xmlns="http://www.w3.org/2000/svg" viewBox="0 0 1101.1 785.9"><defs><style>.cls-1,.cls-11,.cls-12,.cls-7,.cls-9{fill:#e26d5c;}.cls-1,.cls-13,.cls-6{stroke:#2e4756;}.cls-1,.cls-13,.cls-2,.cls-6,.cls-7,.cls-9{stroke-linejoin:round;}.cls-1,.cls-13,.cls-7,.cls-9{stroke-width:3px;}.cls-1,.cls-12,.cls-2,.cls-3,.cls-4,.cls-8,.cls-9{fill-rule:evenodd;}.cls-10,.cls-2,.cls-4{fill:#342e37;}.cls-2,.cls-5,.cls-7,.cls-9{stroke:#e26d5c;}.cls-3,.cls-8{fill:#fbfcf8;}.cls-4{opacity:0.9;}.cls-5,.cls-6{fill:none;}.cls-5{stroke-miterlimit:10;}.cls-6{stroke-linecap:round;stroke-width:2px;}.cls-8{stroke:#c0d2e8;}.cls-13{fill:#7494fb;}</style></defs><g id="layer1"><path id="rect4137" class="cls-1" d="M184.7,106.8H931.2c14.4,0,26,11.4,26,25.4V628.5c0,14-11.6,25.4-26,25.4H184.7c-14.4,0-26-11.4-26-25.4V132.3A25.72,25.72,0,0,1,184.7,106.8Z"/><path id="rect4139" class="cls-1" d="M914.7,787.8s-1.8-11.7-11-24.4a43.22,43.22,0,0,0-30.1-18H237.5a43.43,43.43,0,0,0-30.1,18c-9.2,12.7-11,24.4-11,24.4l359.1-2H914.6v2Z"/><path id="rect4187" class="cls-2" d="M195.1,135.3H920.9a7.38,7.38,0,0,1,7.3,7.5V587.7a7.38,7.38,0,0,1-7.3,7.5H195.1a7.38,7.38,0,0,1-7.3-7.5V142.8A7.32,7.32,0,0,1,195.1,135.3Z"/><path id="rect4191" class="cls-3" d="M307.2,225.9H652.6a11.91,11.91,0,0,1,11.9,11.8V514.6a11.84,11.84,0,0,1-11.9,11.8H307.2a11.91,11.91,0,0,1-11.9-11.8V237.7A11.91,11.91,0,0,1,307.2,225.9Z"/><path id="rect4193" class="cls-4" d="M307.2,225.9a11.74,11.74,0,0,0-11.9,11.6h0v11.3H664.4V237.5a11.71,11.71,0,0,0-11.8-11.6H307.2Z"/><path id="rect4191-5" class="cls-5" d="M307.2,225.9H652.6a11.91,11.91,0,0,1,11.9,11.8V514.6a11.84,11.84,0,0,1-11.9,11.8H307.2a11.91,11.91,0,0,1-11.9-11.8V237.7A11.91,11.91,0,0,1,307.2,225.9Z"/><path id="path4316" class="cls-6" d="M333.7,433.2,392.2,382l58.5,34.8,58.5-68.9,58.5,8.9,58.5-52.5"/><ellipse id="path4318" class="cls-7" cx="392.2" cy="382" rx="8.2" ry="8"/><ellipse id="path4318-2" class="cls-7" cx="450.6" cy="416.8" rx="8.2" ry="8"/><ellipse id="path4318-7" class="cls-7" cx="509.1" cy="347.9" rx="8.2" ry="8"/><ellipse id="path4318-0" class="cls-7" cx="333.7" cy="433.2" rx="8.2" ry="8"/><ellipse id="path4318-9" class="cls-7" cx="567.6" cy="356.8" rx="8.2" ry="8"/><ellipse id="path4318-3" class="cls-7" cx="626.1" cy="304.3" rx="8.2" ry="8"/><path id="rect4373" class="cls-1" d="M325.6,459.9h16.1a2.37,2.37,0,0,1,2.4,2.4h0v33.5a2.43,2.43,0,0,1-2.4,2.4H325.6a2.37,2.37,0,0,1-2.4-2.4h0V462.3a2.37,2.37,0,0,1,2.4-2.4Z"/><path id="rect4373-6" class="cls-1" d="M386.3,432.3H398a4.1,4.1,0,0,1,4.1,4v57.2a4.17,4.17,0,0,1-4.1,4H386.3a4.1,4.1,0,0,1-4.1-4V436.3A4.1,4.1,0,0,1,386.3,432.3Z"/><path id="rect4373-0" class="cls-1" d="M444,442.5h13.3a3.46,3.46,0,0,1,3.5,3.4h0v48.4a3.46,3.46,0,0,1-3.5,3.4H444a3.46,3.46,0,0,1-3.5-3.4V446a3.48,3.48,0,0,1,3.5-3.5Z"/><path id="rect4373-62" class="cls-1" d="M503.2,433.8h11.9a4,4,0,0,1,4,4v55.9a4,4,0,0,1-4,4H503.2a4,4,0,0,1-4-4V437.8A4,4,0,0,1,503.2,433.8Z"/><path id="rect4373-61" class="cls-1" d="M564.9,391.2h5.3a6.62,6.62,0,0,1,6.7,6.6v92.7a6.62,6.62,0,0,1-6.7,6.6h-5.3a6.62,6.62,0,0,1-6.7-6.6V397.8A6.68,6.68,0,0,1,564.9,391.2Z"/><path id="rect4373-8" class="cls-1" d="M625.5,363h1.2a8.52,8.52,0,0,1,8.5,8.3V488.4a8.39,8.39,0,0,1-8.5,8.3h-1.2a8.52,8.52,0,0,1-8.5-8.3h0V371.3a8.39,8.39,0,0,1,8.5-8.3Z"/><path id="path4414" class="cls-1" d="M360,277c-20.5,0-37,16.3-37,36.3s16.6,36.3,37.1,36.3a37.2,37.2,0,0,0,31.8-17.8L360,313.3Z"/><path id="path4416" class="cls-1" d="M367.8,272.4v36.3l31.8,18.5a36.73,36.73,0,0,0,5.3-18.5c0-20-16.6-36.3-37.1-36.3Z"/><path id="rect4487" class="cls-8" d="M718.7,153.5H898.2a11.05,11.05,0,0,1,11.2,10.9v38.9a11.21,11.21,0,0,1-11.2,11H718.7a11.05,11.05,0,0,1-11.2-10.9h0V164.5A11.21,11.21,0,0,1,718.7,153.5Z"/><path id="path4530" class="cls-9" d="M742.3,183.9H887"/><path id="path4528" class="cls-9" d="M742.3,169.5h137"/><path id="path4532" class="cls-9" d="M742.3,198.4H830"/><ellipse id="path4746" class="cls-10" cx="558" cy="121" rx="6.1" ry="6"/></g><path class="cls-10" d="M715,160.1h8a.68.68,0,0,1,.7.7v7.8a.68.68,0,0,1-.7.7h-8a.68.68,0,0,1-.7-.7v-7.8A.68.68,0,0,1,715,160.1Z"/><path class="cls-10" d="M647.8,231.9h9.9a.68.68,0,0,1,.7.7v9.6a.68.68,0,0,1-.7.7h-9.9a.68.68,0,0,1-.7-.7v-9.6A.68.68,0,0,1,647.8,231.9Z"/><path class="cls-11" d="M627.9,231.9h9.9a.68.68,0,0,1,.7.7v9.6a.68.68,0,0,1-.7.7h-9.9a.68.68,0,0,1-.7-.7v-9.6A.68.68,0,0,1,627.9,231.9Z"/><polygon class="cls-12" points="1101.1 262.3 1082.6 274.6 1087.3 296 1074.7 278 1052.8 282.5 1071.3 270.2 1066.7 248.8 1079.2 266.9 1101.1 262.3"/><polygon class="cls-12" points="91.5 167.2 90.1 180.1 101.8 186.2 88.6 184.9 82.3 196.2 83.7 183.4 72.1 177.2 85.3 178.6 91.5 167.2"/><polygon class="cls-12" points="63.1 374.7 63.4 388.9 77 394 62.5 394.4 57.3 407.6 56.9 393.4 43.3 388.3 57.9 388 63.1 374.7"/><polygon class="cls-12" points="781 3.5 788.5 12.7 800.3 10.1 790.9 17.5 793.5 29 786 19.8 774.2 22.3 783.6 15 781 3.5"/><polygon class="cls-12" points="403.2 13.7 393.7 13.4 389.2 21.6 389.5 12.3 381.1 7.9 390.6 8.2 395.1 0 394.8 9.3 403.2 13.7"/><polygon class="cls-12" points="131.7 39.7 128.9 53.7 142 59.9 127.7 57.3 121.3 70 124.1 56.1 111 49.8 125.3 52.5 131.7 39.7"/><polygon class="cls-12" points="969.5 29.4 973.9 42.9 988.4 42.3 974.5 46.6 975.1 60.8 970.7 47.2 956.2 47.8 970.1 43.5 969.5 29.4"/><polygon class="cls-12" points="1043.3 498.7 1055 516.1 1075.2 509.6 1057.4 521 1064.1 540.8 1052.4 523.4 1032.2 529.9 1049.9 518.5 1043.3 498.7"/><path class="cls-11" d="M596.6,25.7a11.7,11.7,0,0,1,.5,2c.1.5,0,.7-.5.8l-2.9.8a.63.63,0,0,1-.8-.3v-.1c-.2-.6-.3-1.2-.5-1.8l-.3-.3a4.1,4.1,0,0,0-1.1-.1c-.1,0-.2.1-.3.1-.3.5-.7,1-1,1.6s-.5.6-1,.3l-2.6-1.5a.53.53,0,0,1-.2-.9c.4-.6.7-1.2,1.1-1.9-.3-.4-.5-.7-.8-1.1-.1-.1-.2-.1-.4-.1a13.32,13.32,0,0,0-1.9.5.6.6,0,0,1-.8-.4h0c-.3-1-.6-2.1-.8-3.1a.56.56,0,0,1,.5-.6l2.1-.6c.1-.5.1-.9.2-1.4a.35.35,0,0,0-.1-.2,16.18,16.18,0,0,0-1.8-1,.49.49,0,0,1-.3-.6c0-.1,0-.1.1-.1.5-.9,1.1-1.9,1.6-2.8a.54.54,0,0,1,.8-.2.1.1,0,0,1,.1.1,15.05,15.05,0,0,1,1.7,1h.3c.3-.2.6-.5.9-.7s.2-.3.2-.5c-.2-.6-.3-1.1-.5-1.7s0-.6.5-.7l3-.8a.63.63,0,0,1,.8.3v.2c.2.6.3,1.2.5,1.8a.22.22,0,0,0,.2.2,5.28,5.28,0,0,0,1.3.1.37.37,0,0,0,.3-.1l.9-1.5c.3-.5.5-.6,1.1-.3.9.5,1.7,1,2.6,1.5a.53.53,0,0,1,.2.9l-1.1,1.7c.3.4.5.7.8,1.1.1.1.2.1.4.1a12.09,12.09,0,0,0,1.8-.5c.4-.1.7,0,.8.4a28.06,28.06,0,0,1,.8,3.1c.1.3-.1.5-.5.6-.6.2-1.2.3-1.8.5-.2,0-.4.2-.3.4s-.1.7-.1,1a.52.52,0,0,0,.2.4l1.6.9a.59.59,0,0,1,.3.9c-.5.9-1.1,1.8-1.6,2.7a.63.63,0,0,1-.8.3.1.1,0,0,1-.1-.1c-.6-.3-1.2-.7-1.7-1h-.3A3.29,3.29,0,0,0,596.6,25.7ZM589,19.2a3.7,3.7,0,1,0,3.8-3.6h-.3A3.63,3.63,0,0,0,589,19.2Z"/><path class="cls-11" d="M235.1,23.9l.9,1.6c.2.4.2.6-.2.8l-2.3,1.3a.62.62,0,0,1-.8-.1.1.1,0,0,0-.1-.1l-.9-1.5c-.1-.1-.2-.2-.3-.2-.3,0-.7.1-1,.1-.1,0-.2.1-.3.2a7.49,7.49,0,0,0-.4,1.6c-.1.6-.3.6-.8.5l-2.6-.7c-.4-.1-.5-.3-.4-.7.2-.6.3-1.2.5-1.9a8.74,8.74,0,0,0-1-.8.19.19,0,0,0-.3,0c-.5.3-1,.5-1.5.8a.62.62,0,0,1-.8-.1h0c-.5-.8-1-1.6-1.5-2.5a.48.48,0,0,1,.2-.6h0l1.7-1c-.1-.4-.1-.8-.2-1.2,0-.1-.1-.1-.2-.2l-1.8-.5a.55.55,0,0,1-.4-.6c.3-.9.5-1.8.8-2.8a.52.52,0,0,1,.7-.3l1.7.4a.37.37,0,0,0,.3-.1c.2-.3.4-.5.6-.8a.45.45,0,0,0,0-.5,10,10,0,0,1-.8-1.4c-.2-.5-.1-.5.2-.7l2.3-1.3a.53.53,0,0,1,.8.1l.1.1.9,1.5c0,.1.1.1.2.1a3.59,3.59,0,0,0,1.1-.2.22.22,0,0,0,.2-.2,8.33,8.33,0,0,0,.4-1.5c.1-.5.3-.6.9-.5l2.6.7c.4.1.5.3.4.7-.2.6-.3,1.2-.5,1.8a3.59,3.59,0,0,0,1,.7c.1.1.2.1.4,0,.5-.3,1-.5,1.5-.8a.49.49,0,0,1,.8.2,20.13,20.13,0,0,1,1.4,2.5c.1.3,0,.5-.3.7-.5.3-.9.5-1.4.8-.2.1-.3.2-.2.4h0a2.77,2.77,0,0,1,.1.9.27.27,0,0,0,.3.3l1.6.4c.4.1.6.3.5.7-.2.9-.5,1.8-.7,2.7-.1.3-.3.5-.6.4h-.1c-.6-.2-1.1-.3-1.7-.5a.37.37,0,0,0-.3.1A4.73,4.73,0,0,1,235.1,23.9ZM227,20a3.3,3.3,0,0,0,4,2.3c.1,0,.1,0,.2-.1a3.18,3.18,0,0,0,2.1-4v-.1a3.2,3.2,0,0,0-4.1-2A3.31,3.31,0,0,0,227,20Z"/><path class="cls-11" d="M1044.5,405.7l2.9,3.2c.7.8.7,1.3-.1,1.9l-4.6,4.1a1.25,1.25,0,0,1-1.7.2l-.3-.3c-.9-1-1.8-2-2.7-2.9a.78.78,0,0,0-.8-.2,17.23,17.23,0,0,0-2.1.7,1.21,1.21,0,0,0-.5.5c-.1,1.2-.2,2.5-.3,3.7s-.4,1.6-1.7,1.5c-2.1-.1-4.1-.2-6.2-.4-.9-.1-1.3-.4-1.2-1.3.1-1.5.2-3,.3-4.4-.8-.4-1.7-.9-2.6-1.3a.62.62,0,0,0-.7.2c-1,.8-2,1.7-3,2.6a1.37,1.37,0,0,1-1.8.1l-.1-.1c-1.5-1.7-3-3.3-4.5-5a1,1,0,0,1,.2-1.5l3.4-3a16.93,16.93,0,0,0-1-2.7.55.55,0,0,0-.5-.3l-4.3-.3c-.8-.1-1.1-.4-1.1-1.2.1-2.2.2-4.4.4-6.6,0-.8.6-1.1,1.5-1.1,1.3.1,2.7.2,4,.2a.55.55,0,0,0,.5-.3c.4-.7.6-1.4,1-2.1a.78.78,0,0,0-.2-1.1,33.29,33.29,0,0,1-2.5-2.8c-.6-.7-.5-1.2.2-1.8l4.7-4.1a1.25,1.25,0,0,1,1.7-.2l.3.3c.9,1,1.8,2,2.7,2.9a.76.76,0,0,0,.5.2c.8-.3,1.7-.6,2.5-.9a1,1,0,0,0,.4-.5l.3-3.6c.1-1.2.4-1.6,1.7-1.5,2,.1,4.1.2,6.1.4,1,.1,1.3.5,1.3,1.4-.1,1.4-.2,2.9-.3,4.2.9.4,1.7.9,2.6,1.2a.75.75,0,0,0,.8-.1c1-.8,2-1.7,2.9-2.5a1.13,1.13,0,0,1,1.6-.2c.1.1.2.1.2.2,1.5,1.6,3,3.3,4.5,4.9a1.08,1.08,0,0,1-.3,1.6,34.67,34.67,0,0,1-2.9,2.5.8.8,0,0,0-.3,1.1h0a11.76,11.76,0,0,1,.7,2c.1.5.4.5.8.5,1.2.1,2.5.1,3.7.2,1,0,1.4.4,1.4,1.4-.1,2.1-.2,4.3-.4,6.4a1.14,1.14,0,0,1-1.4,1.1l-4.1-.3a.55.55,0,0,0-.5.3A19.51,19.51,0,0,1,1044.5,405.7Zm-20.3-5a7.7,7.7,0,0,0,10.3,3.3c.1-.1.2-.1.3-.2a7.38,7.38,0,0,0,2.9-9.9c0-.1-.1-.1-.1-.2a7.52,7.52,0,0,0-10.3-2.7,7.28,7.28,0,0,0-3.1,9.7Z"/><path class="cls-11" d="M1047.9,169.3c.8.7,1.7,1.3,2.5,2,.6.5.6.9.1,1.5l-3,3.6a1,1,0,0,1-1.3.3c-.1,0-.1-.1-.2-.2-.8-.6-1.6-1.3-2.3-1.9a1.27,1.27,0,0,0-.6-.1,10.93,10.93,0,0,0-1.5.8.55.55,0,0,0-.3.5c.1.9.2,1.9.3,2.8s-.1,1.2-1.1,1.3c-1.6.2-3.1.3-4.7.4-.7.1-1-.1-1.1-.9l-.3-3.3a16.55,16.55,0,0,0-2.1-.6.76.76,0,0,0-.5.2c-.7.8-1.3,1.5-1.9,2.3a1.06,1.06,0,0,1-1.4.2c-1.3-1.1-2.7-2.1-4-3.2a.91.91,0,0,1,0-1.2h0c.7-.9,1.5-1.8,2.2-2.6-.4-.7-.7-1.3-1.1-1.9a.52.52,0,0,0-.4-.2l-3.2.3a.72.72,0,0,1-.9-.5v-.2c-.2-1.7-.4-3.3-.5-5-.1-.6.3-.9,1-1l3-.3c.2,0,.3-.1.4-.3.2-.5.3-1.1.5-1.7s0-.6-.3-.8c-.8-.6-1.5-1.2-2.2-1.8-.5-.4-.5-.8-.1-1.4l3-3.6a1,1,0,0,1,1.3-.3c.1.1.2.1.2.2.8.6,1.6,1.3,2.3,1.9a.6.6,0,0,0,.4.1,16.18,16.18,0,0,0,1.8-1,.76.76,0,0,0,.2-.4l-.3-2.7c-.1-.9.1-1.3,1.1-1.4,1.5-.2,3.1-.3,4.6-.4.8-.1,1,.2,1.1.9.1,1.1.2,2.2.3,3.2a16.55,16.55,0,0,0,2.1.6.73.73,0,0,0,.6-.2c.7-.7,1.3-1.5,1.9-2.2a.93.93,0,0,1,1.2-.4c.1,0,.1.1.2.2,1.3,1,2.6,2.1,3.9,3.1.4.3.4.8,0,1.3-.6.7-1.2,1.5-1.8,2.2a.61.61,0,0,0,0,.8h0c.3.4.5.9.8,1.4.2.3.4.3.7.3l2.8-.3c.9-.1,1.1.1,1.2.9.2,1.6.3,3.2.5,4.8a.83.83,0,0,1-.9,1l-3.1.3a.32.32,0,0,0-.3.3A9.05,9.05,0,0,0,1047.9,169.3Zm-15.9-1.4a5.87,5.87,0,0,0,8.1,1.3c.1,0,.1-.1.2-.1a5.56,5.56,0,0,0,.9-7.8l-.1-.1a5.82,5.82,0,0,0-8.1-.8A5.38,5.38,0,0,0,1032,167.9Z"/><path class="cls-11" d="M47.9,276.4c.7.9,1.5,1.9,2.3,2.8.5.7.5,1.1-.2,1.6L45.9,284a1,1,0,0,1-1.4.1c-.1-.1-.2-.2-.2-.3-.7-.9-1.4-1.7-2.1-2.6a.62.62,0,0,0-.7-.2,12.09,12.09,0,0,0-1.8.5c-.2.1-.4.2-.4.4-.2,1-.3,2.1-.4,3.1s-.4,1.3-1.5,1.2l-5.2-.6c-.8-.1-1-.4-1-1.2.1-1.2.3-2.5.5-3.7l-2.1-1.2a.66.66,0,0,0-.6.1,25.6,25.6,0,0,0-2.6,2,1,1,0,0,1-1.5-.1v-.1c-1.1-1.5-2.4-2.9-3.5-4.4a.89.89,0,0,1,.3-1.3l3-2.3A21.72,21.72,0,0,0,24,271c-.1-.2-.2-.3-.4-.3-1.2-.2-2.4-.3-3.6-.5-.7-.1-.9-.4-.8-1,.2-1.8.4-3.7.7-5.5.1-.6.6-.9,1.3-.9,1.1.1,2.3.3,3.4.4.2,0,.4,0,.5-.2.3-.5.6-1.1,1-1.7.3-.4.2-.6-.1-1-.7-.8-1.3-1.6-2-2.5-.5-.6-.4-1,.2-1.5l4.2-3.2a1,1,0,0,1,1.4-.1,1.38,1.38,0,0,1,.3.4c.7.9,1.4,1.7,2.1,2.6a.76.76,0,0,0,.4.2l2.2-.6a.78.78,0,0,0,.4-.4c.2-1,.3-2,.4-3s.4-1.3,1.5-1.2l5.1.6c.8.1,1.1.4,1,1.3-.1,1.2-.3,2.4-.5,3.6l2.1,1.2a.85.85,0,0,0,.7,0,25.6,25.6,0,0,0,2.6-2,1,1,0,0,1,1.4,0l.1.1c1.2,1.4,2.3,2.9,3.5,4.4.3.4.2.9-.3,1.4-.8.7-1.7,1.3-2.5,2a.81.81,0,0,0-.3.9,8.45,8.45,0,0,1,.5,1.7c.1.4.3.5.6.5l3.1.3c.9.1,1.2.4,1.1,1.3-.2,1.8-.4,3.6-.7,5.4-.1.7-.5,1-1.3.9-1.2-.1-2.3-.3-3.5-.4-.2,0-.3.1-.5.2A9,9,0,0,0,47.9,276.4Zm-16.8-5.2a6.42,6.42,0,0,0,8.5,3.3c.1,0,.2-.1.3-.1a6.2,6.2,0,0,0,2.9-8.3.1.1,0,0,0-.1-.1,6.42,6.42,0,0,0-8.6-2.8,6.13,6.13,0,0,0-3,8Z"/><path class="cls-11" d="M13.3,528.5a14.77,14.77,0,0,0-.1,2.1c0,.5-.2.7-.7.6l-3-.2a.56.56,0,0,1-.6-.5v-.2c0-.6.1-1.3.1-1.9,0-.1-.1-.3-.2-.3-.3-.2-.7-.3-1-.5a.19.19,0,0,0-.3,0,17.41,17.41,0,0,0-1.4,1.2.65.65,0,0,1-1.1,0c-.7-.7-1.3-1.5-2-2.2-.3-.3-.3-.6.1-.9a11.51,11.51,0,0,1,1.7-1.4,6.47,6.47,0,0,1-.4-1.3c-.1-.1-.2-.2-.3-.2a13.4,13.4,0,0,0-2-.1.58.58,0,0,1-.6-.6V522c.1-1.1.1-2.2.2-3.2a.63.63,0,0,1,.6-.5l2.2.1c.2-.4.4-.8.6-1.3v-.3c-.4-.5-.9-1-1.4-1.6a.38.38,0,0,1-.1-.6l.1-.1c.8-.7,1.6-1.5,2.5-2.2a.53.53,0,0,1,.8.1v.1c.4.5.9,1,1.3,1.5a.37.37,0,0,0,.3.1c.4-.1.7-.3,1.1-.4s.3-.2.3-.5c0-.6.1-1.2.1-1.8s.2-.6.7-.6l3.1.2c.5,0,.7.3.6.7,0,.6-.1,1.3-.1,1.9,0,.1,0,.2.1.2a6.12,6.12,0,0,0,1.2.5H16c.5-.4.9-.8,1.4-1.2s.7-.4,1.1,0c.7.7,1.3,1.5,2,2.2.3.4.3.6-.1.9-.5.5-1.1.9-1.6,1.4a5,5,0,0,0,.5,1.3l.3.3a12.1,12.1,0,0,0,1.9.1.53.53,0,0,1,.6.6c0,1.1-.1,2.1-.2,3.2,0,.3-.3.5-.7.5-.6,0-1.3-.1-1.9-.1a.55.55,0,0,0-.5.3,4.05,4.05,0,0,1-.5.9c-.1.1-.1.3.1.5a15.38,15.38,0,0,0,1.2,1.3c.4.4.4.6,0,1l-2.4,2.1a.61.61,0,0,1-.8,0l-.1-.1c-.4-.5-.9-1-1.3-1.5a.37.37,0,0,0-.3-.1C14.1,528.2,13.7,528.3,13.3,528.5ZM8,519.9a3.65,3.65,0,0,0,2.2,4.6c.1,0,.2.1.3.1a3.81,3.81,0,0,0,4.6-2.5,3.59,3.59,0,0,0-2.5-4.4h-.1A3.46,3.46,0,0,0,8,519.9Z"/><rect class="cls-13" x="541.9" y="654" width="32.1" height="91.4"/><rect class="cls-11" x="543.4" y="637.2" width="29.1" height="111.2"/></svg>