<svg id="Layer_1" data-name="Layer 1" xmlns="http://www.w3.org/2000/svg" viewBox="0 0 800 800"><defs><style>.cls-1{fill:#e26d5c;}</style></defs><path class="cls-1" d="M784.22,731.16c4.71-.56,6.26,1.43,6.18,6.09-.29,16.26-.25,32.53-.35,48.79-.06,10.21-2.07,12.25-12.26,12.25l-317.4,0h-52v0H42.73c-1.43,0-2.86,0-4.29,0-8.71-.15-10.69-2-10.75-10.86q-.17-24.13,0-48.26c.06-8,1.48-9,9.59-9.27a7.17,7.17,0,0,0,4.93-2.63c6.5-9.12,12.88-18.34,18.94-27.76,1.91-3,3.87-6.66,3.88-10q.15-122.5-.18-245c0-7.49-.17-7.34-7.65-7.7a93.51,93.51,0,0,1-13.78-1.6c-5.28-1.06-7.55-4.64-7.51-10.11.14-17.33.08-34.67,0-52,0-7-.16-13.94-.2-20.91,0-4.59,1.25-7.72,6.81-8.14,6-.46,12-2.06,18-2.89,4.85-.67,6.68-2.7,6.65-8C67,278.42,67.06,223.73,67.1,169c0-12.23-.83-10.46,10.48-11.41,1.42-.12,2.85-.17,4.28-.31,3.54-.34,8.09.47,10.33-1.43,2-1.72.94-6.67,2.28-9.72,1.42-3.23,3.51-6.85,6.35-8.6,4.32-2.66,9.44-4.24,14.41-5.54,3.57-.93,4.49-2.67,4.42-6-.12-6.61.29-13.24,0-19.84-.17-3.94,1.54-5.34,5.08-5.94q35.66-6,71.28-12.15c7.56-1.3,15.16-2.45,22.65-4.1,5.49-1.2,8.45.78,10.12,5.9,1.12,3.44,1.84,8.12,4.35,9.7,2.68,1.7,7.25.41,11,.41,10.36,0,20.73-.16,31.09,0,3.76.06,4.94-1.29,4.89-5-.23-16.62-.07-33.24-.42-49.86-.11-5.22,1.51-7.66,6.87-7.61,5.17,0,10.36-.58,15.52-.38,4.35.17,5.62-1.61,5.53-5.67-.14-6.07.4-12.15.16-18.21C307.6,8.59,309.7,7,314,6.77c21.76-1.27,43.5-3.23,65.27-3.91,40.58-1.25,81.11.29,121.59,3.29,8.73.64,9,.82,9,9.36,0,5.72,0,11.44-.21,17.15-.12,3.21,1.2,4.55,4.37,4.57,4.83,0,9.65.15,14.47.42,7.8.43,8.3,1,8.28,9.09,0,15.73.06,31.46-.27,47.18-.09,4.63,1.09,6.28,5.93,6.16,12.68-.31,25.38-.25,38.06,0,4.45.08,7.26-1,7.61-5.84a7.11,7.11,0,0,1,.38-1.56c2.7-8.48,4.26-9.55,13-8q44.07,7.65,88.09,15.46c7.61,1.35,7.57,1.48,7.37,9.3-.13,5.36-.09,10.72-.36,16.08-.19,3.72.81,5.87,4.92,6.77a72.07,72.07,0,0,1,13.12,4.56c5.43,2.34,8,6.58,8,12.7-.09,7.2.12,7.2,7.49,7.61,4.46.25,8.92.68,13.38.72,5.15,0,6.47,2.57,6.44,7.44-.2,40.57-.17,81.14-.22,121.7,0,15.37.1,30.75-.15,46.11-.06,4.37,1.28,6.59,5.73,7.15,5.3.68,10.54,1.83,15.83,2.65,8.32,1.3,9.69,2.77,9.72,11,.07,23.59-.09,47.18.3,70.77.11,6.06-2.5,9.36-7.69,10.42A83.7,83.7,0,0,1,757,436.51c-4,0-5.36,1.34-5.32,5.27.14,15,.1,30,.07,45q-.21,101.05-.3,202.12a13.78,13.78,0,0,0,3.52,8.35c8.51,9.45,17.07,18.82,22.22,30.65C778.67,731.38,781.29,731.52,784.22,731.16Zm-12.63,26.77c.29-4.64-1.49-5.58-5.84-5.58q-109.08,0-218.18-.3a79.47,79.47,0,0,0-8,.45c-13.09,1.35-26.17,3.89-39.27,4-63.43.38-126.87.14-190.31,0a186.56,186.56,0,0,1-19.77-1.13c-6.88-.76-13.7-3.07-20.55-3.08-72.9-.17-145.81,0-218.71,0-3.7,0-4.61,1.37-4.59,4.69,0,5.54-.29,11.08-.38,16.61-.13,7.92-.1,7.93,8,7.93H408.32v-.19h327c10.37,0,20.73-.24,31.09-.16,4,0,5.3-1.66,5.14-5.51A171.11,171.11,0,0,1,771.59,757.93Zm-9.4-390.63c0-2.92-1.14-3.95-3.9-4.58-34.63-7.94-69.28-15.78-103.81-24.1a1125.69,1125.69,0,0,0-141.93-24.24,999.71,999.71,0,0,0-155.71-5.28c-48.82,2.31-97.32,7.66-145.07,17.7-51,10.73-101.49,23.81-152.25,35.69-3.91.92-5.26,2.42-5.2,6.42.17,12.14.07,24.29-.15,36.43-.07,3.76,1,4.72,4.73,3.74q66.21-17.62,132.48-35c45.25-11.82,91.37-18.24,138-20.82a1315.15,1315.15,0,0,1,137.14-.76c45.76,2.26,91.07,7.44,135.94,16.75,47.21,9.8,94,21.22,140.18,35.09,6.07,1.82,12.24,3.29,18.61,5a23.34,23.34,0,0,0,.7-3.4C762,393,762,380.16,762.19,367.3Zm-3.51,364c-.82-2.07-1-3.61-1.86-4.54-5.65-6.15-11-12.65-17.37-18-2.93-2.48-7.75-3.44-11.8-3.72-8.54-.59-17.15-.16-25.72-.4-1.74,0-4.62-.81-5-1.88-1.51-4.75-5.07-4.29-8.66-4.29q-59.5.07-119,.12a66,66,0,0,1-8.56-.28c-6.58-.88-9.23-4.07-9.23-10.6,0-8.93,0-17.87,0-26.8.09-23.23.27-46.46.26-69.69,0-4.18,1.46-5.9,5.69-5.39,3.33.41,7.91-1.13,7.2,4.89-.55,4.62,2.29,4.68,5.59,4.9q34.22,2.29,68.42,4.77c16.74,1.18,33.5,2.28,50.23,3.65,4.28.35,5.83-1.06,5.73-5.27a158.47,158.47,0,0,1,.35-16.6c.29-3.55-1.29-4.3-4.25-4.5-7.66-.54-15.32-1.23-23-1.87q-49.41-4.08-98.81-8.24c-3-.25-6.33-.7-8.66-2.3-2.14-1.47-4.68-5-4.22-6.93.58-2.47,3.68-5,6.29-6.17,2.42-1.09,5.63-.69,8.46-.51q24.87,1.58,49.73,3.38c23,1.66,46,3.32,68.93,5.16,4.34.35,5.78-1.12,5.59-5.34-.26-5.89-.27-11.8-.08-17.69.11-3.43-1.2-4.63-4.56-5-44.39-4.93-88.74-10.09-133.14-14.87-5.21-.56-6.45-2.43-6.4-7.26.21-24.48.15-49,.16-73.44,0-12.51,0-25-.22-37.52,0-1.64-1.54-4.45-2.73-4.66a207.66,207.66,0,0,0-21.25-2.67c-1.11-.09-3.19,1.83-3.43,3.1-.53,2.75-.18,5.68-.18,8.54q.24,145.27.46,290.56,0,13.67-.26,27.33c-.09,3.94,1.25,6.6,5.31,7.41,5.73,1.15,11.46,3.21,17.19,3.23,66.65.2,133.3.1,199.95,0C749.94,731.94,754,731.56,758.68,731.32ZM734.71,571V467c0-3.21-.16-6.43,0-9.64s-.87-5-4.49-4.94c-4.1.05-8.2-.42-12.3-.55-7.59-.24-7.56-.2-7.55,7.34q.09,106.34.2,212.68c0,5.31-1.62,12.83,1.14,15.33,3.14,2.86,10.35,1.46,15.79,1.52,7.08.09,7.08-.07,7.08-7.45V571ZM721.13,239.29c9.71.62,11,.09,11-4.92,0-15.7-.38-31.39-.32-47.08,0-5-3-4.48-6.3-4.78-4.32-.38-4.53,2-4.53,5.21,0,15.51-.15,31-.21,46.55C720.77,235.83,721,237.39,721.13,239.29Zm9.43,57.1c.09-4.56-.48-7.59-6-7.76-2.6-.08-5.15-1.38-7.74-2.07l-22.64-6v6.05c0,10.36-.14,20.72-.06,31.08,0,3.83-1.13,5-5.12,4-24.72-6.18-49.45-12.37-74.28-18.12-23.09-5.34-46.29-10.19-69.49-15-1.56-.33-3.49,1.15-5.24,1.78,1.43,1,2.75,2.45,4.32,2.8,15.84,3.52,31.8,6.55,47.59,10.28,40.1,9.48,80.13,19.28,120.21,28.87,5.83,1.39,11.77,2.32,18.44,3.62,0-2.26,0-4,0-5.71C730.53,318.89,730.33,307.64,730.56,296.39Zm-26.24-50.71c.26-30.71.54-61.42.56-92.13,0-1.58-1.83-4-3.36-4.6-11.75-4.56-23.47-9.36-35.54-13-15.54-4.63-31.38-8.23-47.1-12.25-2.58-.66-4.91-1.07-5.5,2.75-.87,5.74-4.66,7.28-10.09,6.9-20.83-1.48-41.26,2.44-61.82,4.71-3.81.42-4.5,2.08-4.49,5.5q.06,23-.35,46.06c0,2.93,1,4,3.7,4.75,4.13,1.09,8.15,2.59,12.2,4Q615,220,677.45,241.59c8.53,2.95,17.15,5.67,26.07,8.61A32.3,32.3,0,0,0,704.32,245.68ZM681.86,437.33c16.41,2.4,14.51,4.59,14.28-12.92,0-3.11-1.33-4.22-4.34-4.79-33.82-6.43-67.59-13.09-101.42-19.49-8-1.52-16.18-2.27-25.31-3.51,0,5.59,0,10.19,0,14.79,0,9,0,8.69,8.81,10C609.89,426.6,645.86,432.07,681.86,437.33Zm8.74,245.11c3.1.22,4.4-1.08,4.31-4.45-.22-8.55-.07-17.11-.07-25.67h-.54c0-8.92-.07-17.85,0-26.77,0-4.67-3.26-4.24-6.26-4.5s-4.26.89-4.26,3.94c0,17.84-.12,35.68-.18,53.53C683.6,683.92,687.69,682.23,690.6,682.44Zm3.7-219.84c0-5.65-4.7-4.36-7.76-5.14-.67-.18-2.81,2-2.83,3.17-.25,17.13-.3,34.28-.29,51.42,0,5.16,4.29,3.68,7.13,4.18,3.5.61,3.63-1.84,3.63-4.35,0-8,0-16.07,0-24.11h.12C694.29,479.38,694.25,471,694.3,462.6ZM680.75,280.36c.25-5.23-1.09-7.76-6.58-9.13-11.14-2.79-22-6.55-34.07-10.23,0,11.88-.09,23,.13,34.16,0,1.13,1.69,2.9,2.91,3.22,12.16,3.26,24.39,6.27,37.5,9.58C680.64,298.4,680.34,289.36,680.75,280.36Zm-1.59-153.88c.31-8.69.25-8.54-8.19-9.94q-30.65-5.08-61.23-10.46c-6.43-1.12-6.69-1-8,5.57-.83,4-1.56,8-7.28,8.19-15.7.63-31.38,1.83-47.09,2.4-4.09.15-5.29,1.33-5.07,5.28.24,4.15,2.52,3.7,5.47,3.48,17.44-1.31,34.89-2.61,52.37-3.49,4.18-.21,6.74-1.33,7.93-5.36,1.32-4.48,4.06-5.39,8.62-4.24,20.23,5.1,40.55,9.87,61.76,15C678.69,130.6,679.08,128.55,679.16,126.48ZM665.78,623.62c0-3.58-1.53-4.51-4.77-4.71-6.4-.42-12.82-1-19.16-1.91-4.06-.6-5.46.54-5.36,4.68.23,9.27.07,18.55.07,27.83h-.1c0,9.28.06,18.55,0,27.83,0,3.27.85,4.88,4.6,4.67,6.58-.37,13.2-.35,19.79-.26,3.35,0,4.87-1.09,4.86-4.61Q665.59,650.38,665.78,623.62Zm-.36-110.55c0-20.58,0-40-.09-59.4,0-1.1-1.16-3-2-3.17-8.54-1.52-17.13-2.76-25.58-4.05-.49,1.09-.88,1.58-.88,2.06-.17,19.44-.35,38.89-.33,58.34,0,1.17,1.45,3.24,2.42,3.37C647.38,511.33,655.86,512.09,665.42,513.07ZM626.66,293.58c0-11.88.12-23.28-.16-34.67,0-1.3-2.06-3.21-3.55-3.72-6.92-2.37-14-4.33-21-6.46-3.83-1.16-7.65-2.36-12.38-3.83,0,13.09-.09,25,.15,36.94,0,1.2,2,3.05,3.34,3.41C603.93,288.11,614.84,290.69,626.66,293.58ZM617.6,619.31c0-3.31-1-4.79-4.53-5q-18.44-1-36.84-2.54c-4.38-.37-6.12.84-6,5.5.29,9.62.08,19.26.08,28.9h-.06c0,10.17.08,20.34,0,30.51,0,3.33,1,4.84,4.57,4.78q19-.3,38-.19c3.43,0,4.81-1.25,4.8-4.69Q617.48,648,617.6,619.31Zm-.16-171.86c0-3.29-1.05-4.76-4.49-5.16-12.59-1.47-25.18-3.07-37.72-4.93-4.09-.61-5,.92-5,4.54q.11,27.6-.07,55.22c0,3.35,1.25,4.77,4.6,5.12q19.19,2,38.33,4.35c3.76.46,4.12-1.62,4.11-4.46,0-8.93,0-17.87,0-26.8h.17C617.39,466,617.3,456.74,617.44,447.45Zm-41.83-167.3c0-12.69.1-24.59-.13-36.49a5.2,5.2,0,0,0-3-3.75c-11.67-3.7-23.43-7.11-35.68-10.76-.15,2.08-.37,3.63-.37,5.17-.05,10.69.11,21.39-.15,32.07-.11,4.23,1.3,6.14,5.53,6.64,3.87.45,7.66,1.59,11.5,2.41C560.71,277,568.09,278.56,575.61,280.15Zm-60.2,8.74c4.55.52,5.59-1.1,5.52-5.2-.17-10.54-.06-21.08-.06-31.62h-.3c0-10.72-.09-21.43,0-32.15,0-3.69-1.19-5.17-5-4.8a90.67,90.67,0,0,1-13.38.42c-4.66-.25-5.67,1.8-5.62,6,.16,16.07-.1,32.15.05,48.22,0,4.47-1,6.34-6,6-13.72-.84-27.48-1.15-41.22-1.7-2.91-.12-5.84-.66-6.06,3.76s3.06,3.65,5.51,3.92C471,284.18,493.25,286.37,515.41,288.89Zm-2.95-96.32c3.24,0,5.85,0,5.82-4.67q-.28-56.28-.16-112.57c0-3-1.06-3.89-4-4.07-21.93-1.34-43.85-2.9-65.77-4.33-5.83-.38-11.68-.54-17.51-.8-.15.44-.29.87-.43,1.3,1.63,1.06,3.32,2,4.87,3.18,18.26,13.48,20.65,32.74,3.34,48.39-13.5,12.21-33.81,13.78-50,4.7-22.56-12.63-24.07-38.08-3.18-53.3,1.16-.85,2.18-1.89,4-3.52-3,0-4.76-.08-6.52,0-26.05,1.37-52.08,2.94-78.15,4-5.32.22-6.44,2-6.41,6.91q.36,54.13.12,108.28c0,5.15,1.36,6.66,6.56,6.64,37.88-.16,75.76,0,113.64,0C449.92,192.75,481.19,192.62,512.46,192.57Zm-1.6,550.62c3.37,0,6.74-.74,11.5-1.31-5.24-5.46-10.42-4.89-15.23-4.91q-52.49-.24-105-.25-48.19-.08-96.39-.09c-4.49,0-8.88.21-12.71,5.29,4.41.45,8,1.11,11.61,1.14q38,.27,76.05.3Q445.8,743.38,510.86,743.19Zm-7.05-23.35c3.65.08,5-1,4.95-4.86q-.37-130.8-.52-261.6c0-7.5,0-15,.13-22.51.08-3.42-.66-5.25-4.72-5.13-8.57.25-17.16.14-25.73-.09-4.37-.13-5.33,1.8-5.32,5.82q.18,70.5.08,141h.53c0,16.26,0,32.52,0,48.78-.08,30.73-.12,61.47-.35,92.2,0,4.67,1.06,6.8,6.3,6.51C487.36,719.49,495.6,719.67,503.81,719.84ZM485.67,54c3.65.35,5.26-.68,5.12-4.59-.22-5.89.2-11.8-.17-17.66-.09-1.37-2.21-3.65-3.53-3.75-26.5-2-53-3.67-78.73-5.38-26.75,1.74-52.57,3.48-78.39,5-3.84.23-4.84,1.84-4.65,5.34.22,4.1,0,8.21,0,12.32.12,11.25-1.11,10.34,10.19,9a604.31,604.31,0,0,1,121.31-2.67C466.46,52.43,476.07,53.1,485.67,54Zm-2.91,169.61c.17-3.63-.85-5.09-4.76-5-10.36.23-20.72.16-31.08,0-3-.05-4.2,1-4.18,4,.07,10.9.1,21.81,0,32.7,0,3.46,1.32,4.78,4.73,4.8,10.19.05,20.38.16,30.55.52,3.76.13,4.59-1.6,4.53-4.82-.12-5.36,0-10.72,0-16.09h.21C482.7,234.34,482.51,229,482.76,223.63ZM457.4,571.29c0-2.23.86-4.8-3-4.8q-45.28,0-90.56-.08c-3.29,0-3.77,1.69-3.69,4.42q.3,10.18.28,20.36-.07,62.44-.17,124.87c0,1.7.44,4.79,1,4.87a43.32,43.32,0,0,0,12.08.26c.89-.14,1.69-4.16,1.7-6.4q.3-61.1.3-122.2c0-4.75,1.29-6.59,6.36-6.54,17.86.16,35.73-.13,53.59-.23,7.12,0,7.22,0,7.22,7.12q0,58.68,0,117.37c0,2.68-.42,5.44.11,8,.29,1.39,2,2.86,3.44,3.5s3.18,0,4.76.18c4.58.52,6.25-1.17,6.2-6-.22-23.93-.1-47.87-.11-71.81,0-3.93,0-7.86,0-11.79Q457.15,601.84,457.4,571.29ZM456,509.71c.22-4.22-.94-6-5.6-6-28.24.13-56.47.05-84.7-.09-3.56,0-4.77,1.35-4.72,4.72.08,5.54.22,11.1-.24,16.61-.42,5.1,1.17,7,6.48,6.82,13.57-.32,27.16-.1,40.74-.1v-.49c14.12,0,28.23-.13,42.35.08,4.55.07,5.91-1.67,5.67-6A141.33,141.33,0,0,1,456,509.71Zm0-78.92c0-3.32-1.28-4.36-4.42-4.35-10.52.06-21,0-31.56-.15-3.55-.07-4.08,1.69-4,4.65.12,8.73.05,17.47.06,26.21,0,8.92,0,17.84,0,26.75,0,3.33,1.18,4.78,4.72,4.71q15.25-.32,30.5-.11c3.56.05,4.67-1.37,4.66-4.74Q455.74,457.29,455.94,430.79Zm-.07-37.06c.29-3.91-1-5.39-5.08-5.33-13.74.19-27.5.07-41.24.07v-.06c-14.29,0-28.58.07-42.86-.05-3.61,0-5.21,1-4.95,4.93a91.72,91.72,0,0,1-.1,12.84c-.29,4,1.28,5.28,5.22,5.22,11.61-.17,23.22,0,34.82,0,16.25-.05,32.5-.31,48.75-.22,4.28,0,5.73-1.48,5.44-5.63A82.57,82.57,0,0,1,455.87,393.73Zm-2,154.74c-.82-1-1.46-2.49-2.5-2.84a17.23,17.23,0,0,0-5.3-.42q-19,0-38,0H381.2c-4.64,0-9.3-.16-13.92.12-1.19.07-2.29,1.52-3.44,2.33,1.09,1.09,2,2.58,3.32,3.15s3.16.39,4.76.39q36.69-.09,73.39-.22a28.55,28.55,0,0,0,5.86-.41C452.16,550.34,453,549.2,453.83,548.47ZM430.39,101.75c2.87-4.66,2.71-9.07-.62-13.39a23.58,23.58,0,0,0-18.52-9.21c-9.82,0-16.59,2.87-21,10.08a12.5,12.5,0,0,0,.7,14.52C400.61,116.42,422,115.31,430.39,101.75ZM421.45,722.6c5.14.18,6.38-2.05,6.3-6.66-.21-12.12-.1-24.25-.12-36.37,0-4.41,0-8.81,0-13.85-12.3,0-23.84-.1-35.38.18-1,0-2.7,2.61-2.72,4-.27,15.87-.23,31.74-.38,47.6,0,3.58,1.26,5.16,5,5.08C403.27,722.42,412.37,722.28,421.45,722.6Zm1.49-71.82c3.45,0,4.68-1.45,4.59-4.88-.19-7.5-.09-15-.09-22.51s0-14.92,0-23.3c-12.13,0-23.38.06-34.62-.05-2.87,0-3.74,1.2-3.73,3.85.06,14.47-.06,28.94.21,43.41,0,1.29,2.34,3.62,3.63,3.65C402.93,651.13,412.93,650.81,422.94,650.78Zm2.44-427c.1-3.63-.91-5.13-4.78-5-9.26.21-18.54.17-27.8,0-3.27-.06-4.51,1.12-4.44,4.31.11,5.35,0,10.69,0,16h.06c0,5.35.13,10.7,0,16-.12,3.74,1.46,5,5.1,4.91q13.1-.25,26.2,0c3.92.08,5.37-1.38,5.35-5.3Q425,239.26,425.38,223.75Zm-1.23,54.14c-1-1-1.95-2.79-2.95-2.81-9.44-.2-18.88-.21-28.31.05-1.15,0-2.25,2-3.38,3.08,1.1.85,2.15,2.36,3.29,2.43,4.62.28,9.26.11,13.89.11h0c4.81,0,9.63.16,14.41-.13C422.17,280.54,423.14,278.84,424.15,277.89ZM395.79,488.5c3.83.05,4.91-1.47,4.84-5.08-.19-8.74-.06-17.49-.06-26.24h-.09c0-8.57-.13-17.14.07-25.7.07-3.52-.78-5.23-4.69-5.18-10,.13-20,0-30-.15-2.86,0-4.24.91-4.23,4q0,27-.16,54.08c0,3.08.95,4.55,4.32,4.48C375.8,488.49,385.79,488.37,395.79,488.5Zm-25-265.09c.05-3.36-.91-4.8-4.53-4.73-9.81.2-19.63.19-29.44,0-3.56-.06-4.73,1.31-4.61,4.73.19,5.17.05,10.35.05,15.52h.11c0,5.89,0,11.78,0,17.67,0,2.75.95,4.3,4.1,4.2,10-.31,20-.49,30-.61,3.3,0,4.24-1.62,4.23-4.68C370.56,244.82,370.58,234.11,370.75,223.41Zm-5.08,57.76c2.32-.28,4.81-.05,4.7-3.59-.11-3.88-2.73-3.42-5.29-3.32q-18.45.71-36.9,1.38c-8.29.32-8.33.32-8.38-8.24-.1-15.52-.19-31-.16-46.56,0-3.49-.94-5.24-4.86-5.12a126.57,126.57,0,0,1-14.43-.54c-3.8-.32-5,1.16-5,4.86.17,10.88.06,21.76.06,32.64h-.09c0,10.53.22,21.06-.1,31.57-.14,4.63,1.58,5.37,5.67,4.85C322.5,286.34,344.09,283.77,365.67,281.17ZM344.36,430.91c0-4.21-1.26-5.67-5.51-5.51-8,.3-16.09.44-24.11,0-4.77-.23-6.12,1.17-6.1,5.94.16,47,.1,94,.1,141h-.11q0,71-.08,142.07c0,3.94,1.1,5.45,5.13,5.36,7.5-.16,15,.13,22.52.16,7.7,0,7.71,0,7.72-7.6q.09-105.35.17-210.7C344.12,478.08,344.14,454.5,344.36,430.91ZM293.77,398.2c0-2.08,0-4.16,0-6.73-6.64.64-12.46,1.19-18.27,1.77-7.14.72-7.13.73-7.13,8.14q0,54.67-.06,109.37c0,3.19.17,5.71-4.41,6.2-46.17,5-92.32,10.18-138.49,15.22-3.19.35-4.37,1.57-4.32,4.68.08,6.43.09,12.87-.13,19.29-.12,3.55,1.15,4.76,4.7,4.47q27.24-2.28,54.5-4.3c23.16-1.71,46.32-3.42,69.5-4.91,6.69-.44,12,2.91,12.42,7s-4.12,7.9-11.09,8.81c-5.85.76-11.72,1.31-17.6,1.77Q179.7,573.16,126,577.2c-3.6.27-4.6,1.73-4.48,5,.15,4.29,0,8.58,0,12.87.14,9.41.17,9.47,9.37,8.83,39-2.75,78.06-5.59,117.1-8.21,4.24-.29,5.82-1.86,5.31-5.9-.4-3.22,1-4.67,4.27-4.37a21.22,21.22,0,0,0,4.29,0c4.67-.5,6.15,1.45,6.13,6.15-.2,31.27-.11,62.55-.16,93.82,0,8.12-3.15,11.6-11.44,12.8a48.73,48.73,0,0,1-7,.29q-61.12,0-122.24,0c-3.29,0-6.35-.36-7.5,4-.29,1.08-3.07,2.09-4.73,2.14-7.67.22-15.37.34-23,0a19.19,19.19,0,0,0-13.43,4.05,71.9,71.9,0,0,0-19.34,22.64c3.38.18,5.31.37,7.25.38,63.08.19,126.16.46,189.24.44a153.2,153.2,0,0,0,28.17-2.23c9.66-1.83,9.57-2.6,9.59-12.2Q293.62,558,293.77,398.2ZM279.46,268.36c.22-12.61.13-25.21.13-39.05-12.81,3.72-24.77,7.05-36.59,10.82-1.29.41-2.46,3.31-2.52,5.09-.27,8.55-.14,17.11-.15,25.67v9.45c12.71-2.86,24.51-5.42,36.23-8.28A5,5,0,0,0,279.46,268.36Zm-.1-78.16q.22-23.85-.25-47.69c0-1.31-2-3.56-3.22-3.72-21.43-2.74-42.77-6.7-64.51-5.41-4.25.25-6.77-.72-7.65-5.2-.72-3.7-3-5.53-7-4.27-26.13,8.12-53.9,10.66-78.72,23.4-3.89,2-5.58,3.68-5.52,8.19.39,25.54.44,51.09.59,76.64,0,5.69,0,11.38,0,18.56,4.54-1.37,8.29-2.34,11.93-3.62Q200.55,220.65,276.05,194C277.47,193.53,279.35,191.52,279.36,190.2Zm-4.29,100.25c0-.61,0-1.22,0-1.83-1.79-.12-3.65-.65-5.34-.3-19.22,3.9-38.48,7.62-57.58,12-27.46,6.3-54.82,13-82.17,19.8-4.66,1.16-5.72-.43-5.65-4.62.17-10,.15-20,.14-30,0-1.85-.28-3.7-.43-5.54-11,2.89-21.41,5.45-31.67,8.46-1.9.56-4.62,2.9-4.66,4.47-.38,13.74-.24,27.49-.2,41.24,0,.42.51.85,1.1,1.75ZM275,127.7c.26-3.76-1.15-4.88-4.83-5.07-14.62-.75-29.23-1.78-43.83-2.8-9.8-.68-10-.81-11.68-10.27-.6-3.36-2.16-4.59-5.5-4-22.88,3.84-45.78,7.56-68.63,11.56-1.55.27-3.88,2.5-3.9,3.84-.05,3.95.86,7.92,1.53,11.85a6.32,6.32,0,0,0,2.45-.09c4.49-1.14,9-2.42,13.44-3.55,14.37-3.59,28.73-7.2,43.13-10.66,3.18-.76,7.21-2.4,9.08,1.71,2.81,6.15,6.86,8.76,13.77,6.33l49.33,4.8C272.15,131.6,274.67,131.77,275,127.7ZM252.4,417c.38-6.7.19-13.44.19-21-7.87,1.33-15,2.44-22.16,3.77-32.29,6-64.6,11.89-96.83,18.21-13.06,2.55-12.82,3-12.4,16.16.15,4.81,1.59,5.91,6.49,5.06,25.68-4.45,51.41-8.52,77.14-12.63,14.46-2.3,28.95-4.33,43.39-6.69C249.79,419.62,252.34,418.07,252.4,417Zm-3.3,199.43c.11-4.17-1.39-5.24-5.33-4.92q-19.49,1.54-39,2.61c-3.59.2-4.91,1.41-4.88,5.15q.2,28.65-.1,57.31c0,3.74,1.16,5,4.91,4.92,12.85-.22,25.71-.33,38.56-.13,4.63.07,5.79-1.82,5.7-6-.2-9.63-.06-19.28-.06-28.92H249C249,636.43,248.84,626.43,249.1,616.44Zm-.57-150c0-9.59,0-19.19,0-29.33a22.19,22.19,0,0,0-3.46-.25c-13.79,1.78-27.56,3.65-41.36,5.36-3.41.42-3.77,2.44-3.76,5.22.06,18.36.13,36.73,0,55.09,0,4.06,1.66,4.85,5.2,4.37,13.07-1.74,26.15-3.44,39.24-5,3.64-.43,4.14-2.51,4.12-5.52C248.42,486.38,248.52,476.4,248.53,466.41ZM226.37,281.62c.3-11.9.18-23.81.18-36.52-11.48,3.19-22.12,6-32.66,9.23-1.13.34-2.36,2.62-2.38,4-.11,10.17.13,20.35.12,30.52,0,3.43,1.26,4.47,4.59,3.54,8.76-2.47,17.59-4.68,26.3-7.27C224.08,284.66,226.34,282.85,226.37,281.62ZM176.26,681.54c3.72.07,5.06-1.3,5-5-.16-9.28-.06-18.57-.06-27.85h-.08c0-9.28,0-18.57,0-27.85,0-3.05-.87-4.52-4.41-4.18-7.28.69-14.63.73-21.9,1.49-1.47.15-3.91,2.25-3.92,3.49q-.41,28.38,0,56.76c0,1.12,2.22,3.13,3.45,3.17C161.62,681.81,168.94,681.41,176.26,681.54Zm-1.49-170.85c4.46-.32,6.25-2,6.21-6.58-.14-17.66,0-35.31,0-53a35.89,35.89,0,0,0-.62-4.56c-5.8.76-11.25,1.37-16.67,2.19-13.11,2-13.08,2-13,15.38.06,14.81.07,29.61.15,44.42,0,2.44-.45,5.21,3.81,4.54C161.29,512.06,168,511.16,174.77,510.69Zm3.57-216.21c.15-11.16.09-22.33.09-34.09-13.39,4.21-25.79,8-38.13,12.07-1.21.39-2.87,2-2.9,3.07-.21,10.29-.13,20.59-.13,32,13.87-3.67,26.41-6.95,38.89-10.39A3.69,3.69,0,0,0,178.34,294.48ZM126.41,682.62c4.68,0,5.76-2.12,5.67-6.24-.17-8.37-.05-16.75-.05-25.13,0-8.2-.07-16.4,0-24.59.05-3.43-.23-5.77-4.76-5.67-4.35.09-6,1.56-6,6,0,16.57-.15,33.14-.36,49.72C120.93,680.54,122,682.58,126.41,682.62Zm-.86-166.42c3.76-.19,6.58-.58,6.42-5.51-.27-8-.07-16-.07-24h0c0-8,.16-16-.13-24-.06-1.49-1.7-4-2.91-4.18-5.82-.94-7.42.59-7.46,6.39-.11,15.31-.11,30.62-.24,45.93C121.09,514,121.28,516.42,125.55,516.2ZM96.1,688.92c10.71-.33,10,1.16,10-10.34q0-101.57-.13-203.12c0-6.44-.06-12.87.08-19.3.06-3.19-1.12-4.48-4.41-4.32a86.73,86.73,0,0,1-13.39,0c-5.43-.58-6.48,1.65-6.45,6.65.19,37.34.1,74.68.1,112h.33c0,37.51.06,75-.09,112.54,0,4.55,1,6.75,5.93,6C90.7,688.65,93.42,689,96.1,688.92ZM91.26,239.28c3.72.29,5.18-.76,5.08-4.63-.21-7.85-.06-15.7-.06-23.56s-.06-15.71,0-23.56c0-3-.15-5.3-4.22-4.89-3.4.34-6.9-.41-6.87,5,.11,15.7.1,31.41-.19,47.12C84.94,239.89,88,239,91.26,239.28Z"/><path class="cls-1" d="M765.75,752.35c4.35,0,6.13.94,5.84,5.58a171.11,171.11,0,0,0,0,17.69c.16,3.85-1.13,5.54-5.14,5.51-10.36-.08-20.72.16-31.09.16h-327v.19H54c-8.09,0-8.12,0-8-7.93.09-5.53.43-11.07.38-16.61,0-3.32.89-4.69,4.59-4.69,72.9,0,145.81-.14,218.71,0,6.85,0,13.67,2.32,20.55,3.08A186.56,186.56,0,0,0,310,756.49c63.44.12,126.88.36,190.31,0,13.1-.08,26.18-2.62,39.27-4a79.47,79.47,0,0,1,8-.45Q656.67,752.21,765.75,752.35Z"/><path class="cls-1" d="M758.29,362.72c2.76.63,3.94,1.66,3.9,4.58C762,380.16,762,393,762,405.89a23.34,23.34,0,0,1-.7,3.4c-6.37-1.69-12.54-3.16-18.61-5-46.18-13.87-93-25.29-140.18-35.09-44.87-9.31-90.18-14.49-135.94-16.75a1315.15,1315.15,0,0,0-137.14.76c-46.63,2.58-92.75,9-138,20.82q-66.28,17.31-132.48,35c-3.68,1-4.8,0-4.73-3.74.22-12.14.32-24.29.15-36.43-.06-4,1.29-5.5,5.2-6.42,50.76-11.88,101.26-25,152.25-35.69,47.75-10,96.25-15.39,145.07-17.7a999.71,999.71,0,0,1,155.71,5.28,1125.69,1125.69,0,0,1,141.93,24.24C689,346.94,723.66,354.78,758.29,362.72Z"/><path class="cls-1" d="M637.59,138.09c21,.21,37.42,23.51,29.27,41.65-7.73,17.21-28.54,21-41.61,7.44-9.64-10-12.21-22-8.27-35.18C619.55,143.37,627.79,138,637.59,138.09ZM642.76,177c5.23,0,9.74-4.38,9.71-9.4,0-5.8-6.52-12.57-11.88-12.42-4.54.12-9.32,5.74-9.21,10.81C631.49,170.82,637.85,177,642.76,177Z"/><path class="cls-1" d="M201.3,155.8c4,17-7.66,35.54-24.61,39.32-14.13,3.14-27.72-9.19-27.6-25.06-.32-19.8,15.31-30.5,30.78-32.21C189.73,136.76,198.71,144.71,201.3,155.8ZM185.93,165c.16-4.48-5-10-9.41-10.06-4.22,0-11.45,8-11.77,13.11-.26,4.18,4.87,9.45,9.21,9.47C179.37,177.49,185.72,170.85,185.93,165Z"/><rect class="cls-1" x="253.4" y="513.21" width="14.62" height="78.39"/><rect class="cls-1" x="551.32" y="509.72" width="13.74" height="86.88" transform="translate(-7.83 8.02) rotate(-0.82)"/></svg>