<?xml version="1.0" standalone="no"?>
<!DOCTYPE svg PUBLIC "-//W3C//DTD SVG 20010904//EN"
 "http://www.w3.org/TR/2001/REC-SVG-20010904/DTD/svg10.dtd">
<svg version="1.0" xmlns="http://www.w3.org/2000/svg"
 width="566.000000pt" height="566.000000pt" viewBox="0 0 566.000000 566.000000"
 preserveAspectRatio="xMidYMid meet">
<metadata>
Created by potrace 1.14, written by Peter Selinger 2001-2017
</metadata>
<g transform="translate(0.000000,566.000000) scale(0.100000,-0.100000)"
fill="#000000" stroke="none">
<path d="M20 2820 l0 -1050 22 0 c21 0 956 76 2325 190 326 27 602 54 613 60
18 10 20 21 20 135 l0 125 -35 0 -35 0 0 -95 c0 -68 -4 -97 -12 -100 -7 -2
-625 -54 -1373 -114 -748 -61 -1379 -114 -1402 -117 l-43 -5 0 965 c0 766 3
966 13 966 6 0 642 -52 1412 -115 770 -63 1401 -115 1403 -115 1 0 2 -45 2
-100 l0 -100 35 0 35 0 0 134 0 135 -42 5 c-24 4 -677 58 -1453 121 -776 63
-1427 117 -1447 120 l-38 5 0 -1050z"/>
<path d="M2908 3265 c-139 -45 -183 -214 -82 -309 16 -14 73 -43 128 -64 107
-40 146 -68 146 -105 0 -37 -44 -72 -92 -72 -35 0 -45 6 -77 43 -35 42 -37 42
-100 42 -61 0 -63 -1 -57 -22 3 -13 6 -31 6 -40 0 -29 62 -90 115 -114 123
-58 294 -7 334 99 15 39 14 111 -3 150 -21 51 -55 75 -167 117 -104 39 -125
54 -136 98 -7 30 25 65 61 65 15 0 53 -17 85 -37 48 -29 69 -36 111 -36 l53 0
-6 40 c-7 52 -47 104 -100 132 -54 27 -155 33 -219 13z"/>
<path d="M290 3210 l0 -50 68 0 c106 0 102 12 102 -293 l0 -257 65 0 65 0 2
273 3 272 83 3 82 3 0 49 0 50 -235 0 -235 0 0 -50z"/>
<path d="M1490 3201 c0 -58 -1 -60 -30 -66 -29 -6 -30 -9 -30 -60 0 -49 2 -53
28 -58 l27 -6 1 -153 c0 -132 3 -158 19 -185 27 -46 70 -63 154 -63 l71 0 0
55 c0 54 -1 55 -29 55 -15 0 -40 9 -55 21 l-27 21 3 126 3 127 53 3 52 3 0 55
0 54 -45 0 c-40 0 -47 3 -55 26 -6 14 -10 38 -10 53 0 39 -17 51 -77 51 l-53
0 0 -59z"/>
<path d="M2618 3115 l-66 -34 -6 24 c-6 23 -11 25 -59 25 -29 0 -58 -5 -65
-12 -9 -9 -12 -80 -12 -260 l0 -248 69 0 70 0 3 164 c4 191 7 198 94 217 l54
12 0 74 c0 40 -3 73 -7 73 -5 -1 -38 -16 -75 -35z"/>
<path d="M1980 3131 c-85 -28 -151 -93 -174 -172 -20 -66 -20 -112 -1 -176 34
-115 124 -183 240 -183 117 0 197 46 244 142 92 184 -19 384 -218 394 -36 2
-77 0 -91 -5z m125 -125 c99 -42 102 -222 5 -274 -33 -17 -105 -9 -132 14 -70
63 -61 208 16 255 37 23 65 24 111 5z"/>
<path d="M3403 3133 l-53 -4 0 -385 0 -384 70 0 70 0 0 146 c0 135 1 146 18
139 110 -48 174 -55 237 -26 154 71 191 323 67 455 -64 68 -156 82 -257 41
-33 -14 -61 -25 -61 -25 -1 0 -5 11 -8 25 -4 14 -12 24 -19 23 -6 -1 -36 -3
-64 -5z m275 -133 c35 -22 72 -88 72 -130 0 -37 -35 -106 -63 -125 -121 -79
-250 72 -175 206 37 65 105 86 166 49z"/>
<path d="M4085 3122 c-153 -74 -190 -324 -67 -456 63 -67 156 -82 257 -41 57
24 74 22 75 -7 0 -5 29 -8 65 -8 l65 0 0 260 c0 248 -1 260 -19 260 -10 0 -32
3 -49 6 -25 5 -36 1 -55 -20 l-25 -26 -48 21 c-70 30 -149 35 -199 11z m184
-120 c45 -24 71 -74 71 -137 0 -63 -28 -111 -77 -131 -90 -38 -175 28 -175
136 0 58 23 105 65 130 40 25 73 25 116 2z"/>
<path d="M4736 3125 c-93 -33 -155 -120 -164 -230 -13 -174 93 -295 261 -295
77 0 113 14 169 68 38 36 65 93 53 112 -3 5 -25 10 -48 10 -32 0 -57 -9 -97
-35 -66 -43 -106 -45 -149 -9 -50 42 -65 129 -35 204 20 48 38 60 97 60 34 0
53 -7 82 -30 32 -26 46 -30 96 -30 53 0 59 2 59 20 0 54 -78 137 -149 158 -51
16 -127 14 -175 -3z"/>
<path d="M5275 3116 c-27 -13 -62 -36 -77 -52 -102 -109 -93 -305 18 -403 51
-44 100 -61 180 -61 70 0 126 24 171 71 33 35 58 87 47 98 -3 3 -27 6 -53 6
-35 0 -58 -7 -89 -28 -55 -36 -92 -43 -129 -23 -32 16 -63 56 -63 81 0 13 24
15 175 15 l175 0 6 26 c10 38 -2 118 -25 161 -61 119 -212 168 -336 109z m186
-125 c53 -53 43 -61 -76 -61 -119 0 -129 8 -76 61 24 24 38 29 76 29 38 0 52
-5 76 -29z"/>
<path d="M852 2933 c3 -185 5 -201 27 -239 43 -77 121 -102 238 -78 69 14 77
14 93 -1 15 -13 30 -15 74 -10 l56 7 0 259 0 259 -69 0 -70 0 -3 -180 c-3
-168 -4 -181 -24 -201 -31 -31 -100 -36 -141 -10 -44 28 -53 69 -53 244 l0
147 -66 0 -66 0 4 -197z"/>
</g>
</svg>
